<?xml version="1.0" encoding="UTF-8" standalone="no"?>
<svg
   xmlns:dc="http://purl.org/dc/elements/1.1/"
   xmlns:cc="http://creativecommons.org/ns#"
   xmlns:rdf="http://www.w3.org/1999/02/22-rdf-syntax-ns#"
   xmlns:svg="http://www.w3.org/2000/svg"
   xmlns="http://www.w3.org/2000/svg"
   xmlns:sodipodi="http://sodipodi.sourceforge.net/DTD/sodipodi-0.dtd"
   xmlns:inkscape="http://www.inkscape.org/namespaces/inkscape"
   data-name="Layer 1"
   width="717.67004"
   height="596.3292"
   viewBox="0 0 717.67004 596.3292"
   version="1.1"
   id="svg102"
   sodipodi:docname="undraw_home_screen_re_640d.svg"
   inkscape:version="1.0.1 (3bc2e813f5, 2020-09-07)">
  <metadata
     id="metadata108">
    <rdf:RDF>
      <cc:Work
         rdf:about="">
        <dc:format>image/svg+xml</dc:format>
        <dc:type
           rdf:resource="http://purl.org/dc/dcmitype/StillImage" />
      </cc:Work>
    </rdf:RDF>
  </metadata>
  <defs
     id="defs106" />
  <sodipodi:namedview
     pagecolor="#ffffff"
     bordercolor="#666666"
     borderopacity="1"
     objecttolerance="10"
     gridtolerance="10"
     guidetolerance="10"
     inkscape:pageopacity="0"
     inkscape:pageshadow="2"
     inkscape:window-width="2498"
     inkscape:window-height="1057"
     id="namedview104"
     showgrid="false"
     inkscape:zoom="0.72596037"
     inkscape:cx="194.93248"
     inkscape:cy="384.31939"
     inkscape:window-x="54"
     inkscape:window-y="-8"
     inkscape:window-maximized="1"
     inkscape:current-layer="svg102"
     inkscape:document-rotation="0" />
  <rect
     x="103.85476"
     width="326"
     height="594"
     rx="40.221802"
     fill="#3f3d56"
     id="rect2"
     y="0" />
  <path
     d="m 665.5202,200.56773 v 496.54 c -0.034,29.38402 -13.84598,43.196 -43.23,43.23 h -228.54 c -29.38402,-0.034 -43.196,-13.84598 -43.23,-43.23 v -496.54 c 0.034,-29.38402 13.84598,-43.19598 43.23,-43.23 h 41.27 v 9.42 c 5.1e-4,8.88053 7.19947,16.07949 16.08,16.08 h 113.84 c 8.88053,-5.1e-4 16.07949,-7.19947 16.08,-16.08 v -9.42 h 41.27 c 29.38401,0.034 43.19598,13.84599 43.23,43.23 z"
     transform="translate(-241.16498,-151.8354)"
     fill="#ffffff"
     id="path4"
     sodipodi:nodetypes="ccccccccccccccc" />
  <path
     d="M343.51974,272.33541a4.0046,4.0046,0,0,1-4-4v-8a4,4,0,0,1,8,0v8A4.00458,4.00458,0,0,1,343.51974,272.33541Z"
     transform="translate(-241.16498 -151.8354)"
     fill="#3f3d56"
     id="path8" />
  <path
     d="M343.51974,313.35689a4.00458,4.00458,0,0,1-4-4V287.33541a4,4,0,0,1,8,0v22.02148A4.00458,4.00458,0,0,1,343.51974,313.35689Z"
     transform="translate(-241.16498 -151.8354)"
     fill="#3f3d56"
     id="path10" />
  <path
     d="M343.51974,346.33541a4.00458,4.00458,0,0,1-4-4V320.31392a4,4,0,0,1,8,0v22.02149A4.00459,4.00459,0,0,1,343.51974,346.33541Z"
     transform="translate(-241.16498 -151.8354)"
     fill="#3f3d56"
     id="path12" />
  <path
     d="M671.51974,328.3354a4.00458,4.00458,0,0,1-4-4V270.602a4,4,0,0,1,8,0v53.7334A4.00459,4.00459,0,0,1,671.51974,328.3354Z"
     transform="translate(-241.16498 -151.8354)"
     fill="#3f3d56"
     id="path14" />
  <path
     d="M516.61227,170.1812h-31a2.5,2.5,0,0,1,0-5h31a2.5,2.5,0,0,1,0,5Z"
     transform="translate(-241.16498 -151.8354)"
     fill="#fff"
     id="path16" />
  <circle
     cx="291.44729"
     cy="15.8458"
     r="2"
     fill="#fff"
     id="circle18" />
  <path
     d="m 443.88574,302.36523 h -42.73242 c -10.01033,-0.0113 -14.12248,-4.12345 -14.13379,-14.13378 V 245.499 c 0.0113,-10.01033 4.12346,-14.12248 14.13379,-14.13379 h 42.73242 c 10.01033,0.0113 14.12249,4.12346 14.13379,14.13379 v 42.73243 c -0.0113,10.01034 -4.12345,14.1225 -14.13379,14.1338 z m -42.73242,-69 c -8.9062,0.0102 -12.12356,3.22757 -12.13379,12.13377 v 42.73243 c 0.0102,8.90621 3.22758,12.12357 12.13379,12.13378 h 42.73242 c 8.90621,-0.0102 12.12357,-3.22757 12.13379,-12.13378 V 245.499 c -0.0102,-8.90621 -3.22758,-12.12357 -12.13379,-12.13379 z"
     transform="translate(-241.16498,-151.8354)"
     fill="#e6e6e6"
     id="path20"
     sodipodi:nodetypes="cccccccccccccccccc" />
  <path
     d="m 529.38574,302.86523 h -42.73242 c -10.01033,-0.0113 -14.12248,-4.12345 -14.13379,-14.13378 V 245.999 c 0.0113,-10.01033 4.12346,-14.12248 14.13379,-14.13379 h 42.73242 c 10.01033,0.0113 14.12249,4.12346 14.13379,14.13379 v 42.73243 c -0.0113,10.01034 -4.12345,14.1225 -14.13379,14.1338 z m -42.73242,-69 c -8.9062,0.0102 -12.12356,3.22757 -12.13379,12.13377 v 42.73243 c 0.0102,8.90621 3.22758,12.12357 12.13379,12.13378 h 42.73242 c 8.90621,-0.0102 12.12357,-3.22757 12.13379,-12.13378 V 245.999 c -0.0102,-8.90621 -3.22758,-12.12357 -12.13379,-12.13379 z"
     transform="translate(-241.16498,-151.8354)"
     fill="#e6e6e6"
     id="path22"
     sodipodi:nodetypes="cccccccccccccccccc" />
  <path
     d="m 614.88574,303.36523 h -42.73242 c -10.01033,-0.0113 -14.12248,-4.12345 -14.13379,-14.13378 V 246.499 c 0.0113,-10.01033 4.12346,-14.12248 14.13379,-14.13379 h 42.73242 c 10.01033,0.0113 14.12249,4.12346 14.13379,14.13379 v 42.73243 c -0.0113,10.01034 -4.12345,14.1225 -14.13379,14.1338 z m -42.73242,-69 c -8.9062,0.0102 -12.12356,3.22757 -12.13379,12.13377 v 42.73243 c 0.0102,8.90621 3.22758,12.12357 12.13379,12.13378 h 42.73242 c 8.90628,-0.01 12.12375,-3.2275 12.13379,-12.13378 V 246.499 c -0.01,-8.90629 -3.2275,-12.12375 -12.13379,-12.13379 z"
     transform="translate(-241.16498,-151.8354)"
     fill="#e6e6e6"
     id="path24"
     sodipodi:nodetypes="cccccccccccccccccc" />
  <path
     d="m 443.88574,401.36523 h -42.73242 c -10.01033,-0.0113 -14.12248,-4.12345 -14.13379,-14.13378 V 344.499 c 0.0113,-10.01033 4.12346,-14.12248 14.13379,-14.13379 h 42.73242 c 10.01033,0.0113 14.12249,4.12346 14.13379,14.13379 v 42.73243 c -0.0113,10.01034 -4.12345,14.1225 -14.13379,14.1338 z m -42.73242,-69 c -8.9062,0.0102 -12.12356,3.22757 -12.13379,12.13377 v 42.73243 c 0.0102,8.90621 3.22758,12.12357 12.13379,12.13378 h 42.73242 c 8.90621,-0.0102 12.12357,-3.22757 12.13379,-12.13378 V 344.499 c -0.0102,-8.90621 -3.22758,-12.12357 -12.13379,-12.13379 z"
     transform="translate(-241.16498,-151.8354)"
     fill="#e6e6e6"
     id="path26"
     sodipodi:nodetypes="cccccccccccccccccc" />
  <path
     d="m 529.38574,401.86523 h -42.73242 c -10.01033,-0.0113 -14.12248,-4.12345 -14.13379,-14.13378 V 344.999 c 0.0113,-10.01033 4.12346,-14.12248 14.13379,-14.13379 h 42.73242 c 10.01033,0.0113 14.12249,4.12346 14.13379,14.13379 v 42.73243 c -0.0113,10.01034 -4.12345,14.1225 -14.13379,14.1338 z m -42.73242,-69 c -8.9062,0.0102 -12.12356,3.22757 -12.13379,12.13377 v 42.73243 c 0.0102,8.90621 3.22758,12.12357 12.13379,12.13378 h 42.73242 c 8.90621,-0.0102 12.12357,-3.22757 12.13379,-12.13378 V 344.999 c -0.0102,-8.90621 -3.22758,-12.12357 -12.13379,-12.13379 z"
     transform="translate(-241.16498,-151.8354)"
     fill="#e6e6e6"
     id="path28"
     sodipodi:nodetypes="cccccccccccccccccc" />
  <path
     d="m 614.88574,402.36523 h -42.73242 c -10.01033,-0.0113 -14.12248,-4.12345 -14.13379,-14.13378 V 345.499 c 0.0113,-10.01033 4.12346,-14.12248 14.13379,-14.13379 h 42.73242 c 10.01033,0.0113 14.12249,4.12346 14.13379,14.13379 v 42.73243 c -0.0113,10.01034 -4.12345,14.1225 -14.13379,14.1338 z m -42.73242,-69 c -8.9062,0.0102 -12.12356,3.22757 -12.13379,12.13377 v 42.73243 c 0.0102,8.90621 3.22758,12.12357 12.13379,12.13378 h 42.73242 c 8.90628,-0.01 12.12375,-3.2275 12.13379,-12.13378 V 345.499 c -0.01,-8.90629 -3.2275,-12.12375 -12.13379,-12.13379 z"
     transform="translate(-241.16498,-151.8354)"
     fill="#e6e6e6"
     id="path30"
     sodipodi:nodetypes="cccccccccccccccccc" />
  <path
     d="m 443.886,701.36546 h -42.73247 c -9.45834,-0.0106 -13.1232,-3.67545 -13.13379,-13.13379 v -42.73242 c 0.0106,-9.45834 3.67545,-13.1232 13.13379,-13.13379 H 443.886 c 9.45834,0.0106 13.1232,3.67545 13.13379,13.13379 v 42.73242 c -0.0106,9.45834 -3.67545,13.1232 -13.13379,13.13379 z"
     transform="translate(-241.16498,-151.8354)"
     fill="#49a909"
     id="path32"
     sodipodi:nodetypes="ccccccccc" />
  <path
     d="m 529.386,701.86546 h -42.73247 c -9.45834,-0.0106 -13.1232,-3.67545 -13.13379,-13.13379 v -42.73242 c 0.0106,-9.45834 3.67545,-13.1232 13.13379,-13.13379 H 529.386 c 9.45834,0.0106 13.1232,3.67545 13.13379,13.13379 v 42.73242 c -0.0106,9.45834 -3.67545,13.1232 -13.13379,13.13379 z"
     transform="translate(-241.16498,-151.8354)"
     fill="#e6e6e6"
     id="path34"
     sodipodi:nodetypes="ccccccccc" />
  <path
     d="m 614.886,702.36546 h -42.73247 c -9.45834,-0.0106 -13.1232,-3.67545 -13.13379,-13.13379 v -42.73242 c 0.0106,-9.45834 3.67545,-13.1232 13.13379,-13.13379 H 614.886 c 9.45834,0.0106 13.1232,3.67545 13.13379,13.13379 v 42.73242 c -0.0106,9.45834 -3.67545,13.1232 -13.13379,13.13379 z"
     transform="translate(-241.16498,-151.8354)"
     fill="#e6e6e6"
     id="path36"
     sodipodi:nodetypes="ccccccccc" />
  <circle
     cx="248.85476"
     cy="447.03006"
     r="5"
     fill="#ccc"
     id="circle38" />
  <circle
     cx="266.85476"
     cy="447.03006"
     r="5"
     fill="#e6e6e6"
     id="circle40" />
  <circle
     cx="284.85476"
     cy="447.03006"
     r="5"
     fill="#e6e6e6"
     id="circle42" />
  <path
     d="M 629.60618,712.86546 H 386.70091 c -11.34251,-0.0128 -18.53431,-7.20436 -18.54737,-18.54687 v -54.90625 c 0.0131,-11.34251 7.20486,-18.5341 18.54737,-18.54688 h 242.90527 c 11.34251,0.0128 18.53431,7.20437 18.54736,18.54688 v 54.90625 c -0.0131,11.3425 -7.20486,18.53409 -18.54736,18.54687 z m -242.90527,-90 c -10.23846,0.0115 -16.53558,6.30842 -16.54737,16.54688 v 54.90625 c 0.0118,10.23846 6.30891,16.53535 16.54737,16.54687 h 242.90527 c 10.23846,-0.0115 16.53557,-6.30841 16.54736,-16.54687 v -54.90625 c -0.0118,-10.23846 -6.3089,-16.53536 -16.54736,-16.54688 z"
     transform="translate(-241.16498,-151.8354)"
     fill="#e6e6e6"
     id="path44"
     sodipodi:nodetypes="cccccccccccccccccc" />
  <path
     d="M835.28461,281.522a7.74428,7.74428,0,0,0-6.49595,8.63,7.42984,7.42984,0,0,0,.274,1.19724l-21.49744,16.36448,4.46573,13.8298,27.02516-25.6012a7.72281,7.72281,0,0,0,4.75993-8.13863,7.39069,7.39069,0,0,0-8.33075-6.31217Q835.38475,281.50541,835.28461,281.522Z"
     transform="translate(-241.16498 -151.8354)"
     fill="#ffb6b6"
     id="path46" />
  <path
     d="M686.987,357.394v0a13.003,13.003,0,0,0,13.19117,12.47146l40.58871-.62122L792.09278,345.44s16.738-14.20658,21.40459-14.54124,7.15173,4.00747,6.09419.04314-2.45668-6.61808,1.12983-6.248,3.016-6.94555,3.80908-9.71282-10.1158-12.75424-10.1158-12.75424-7.86172.15205-8.37639,1.185,1.27606,3.63592-2.94854,3.52446-7.451.06641-7.58291,2.028.17581,3.49064-2.16541,5.00983-12.90808,9.35128-12.90808,9.35128L696.82237,344.25A13.003,13.003,0,0,0,686.987,357.394Z"
     transform="translate(-241.16498 -151.8354)"
     fill="#3f3d56"
     id="path48" />
  <polygon
     points="467.555 574.794 478.593 574.794 483.845 532.22 467.555 532.22 467.555 574.794"
     fill="#ffb6b6"
     id="polygon50" />
  <path
     d="M705.11769,719.06984l17.634-1.05251v7.55515l16.76509,11.57858a4.71923,4.71923,0,0,1-2.68162,8.60272H715.84123l-3.61861-7.4732-1.41289,7.4732-7.91553,0Z"
     transform="translate(-241.16498 -151.8354)"
     fill="#2f2e41"
     id="path52" />
  <polygon
     points="485.989 302.03 491.989 265.03 449.989 255.03 449.989 293.361 485.989 302.03"
     fill="#ffb6b6"
     id="polygon54" />
  <path
     d="M674.65354,489.36546,695.18789,622.8422s-1.20765,58.01145,8.129,71.26736l2.33665,14.2559h21.067s-.38775-8.7559,1.77263-13.87795,5.16038-1.72835,2.16038-6.4252-3.32076-4.17716-2.16038-7.937,1.83774-174.23623,1.83774-174.23623Z"
     transform="translate(-241.16498 -151.8354)"
     fill="#2f2e41"
     id="path56" />
  <polygon
     points="445.996 509.241 452.392 518.236 490.133 497.847 480.693 484.57 445.996 509.241"
     fill="#ffb6b6"
     id="polygon58" />
  <path
     d="M691.2346,653.75948,702.31089,667.521l-6.15735,4.37805.27864,20.37288a4.71924,4.71924,0,0,1-8.56506,2.79961L675.7016,677.96182l3.99365-7.27969-6.9093,3.17908-4.58689-6.45106Z"
     transform="translate(-241.16498 -151.8354)"
     fill="#2f2e41"
     id="path60" />
  <path
     d="M689.15354,422.86546l-.28608,15.48645s-37.95777,33.30964-9.33584,73.9116c0,0,3.60618,11.68926,8.61405,11.1456s7.558,2.25041,6.283,4.85338S741.815,562.53465,741.815,562.53465s-32.07323,70.71223-39.66142,86.33081l5,16s-2.64851,6.18895,1.42575,3.84447,2.06972-2.664,6.572-3.50422,10.05145-2.76938,9.77686-3.80481,55.98517-88.08124,55.98517-88.08124,13.48039-14.34,3.61031-31.14711c-1.37008-.30709-1.40609,0-1.40609,0l-48.24732-54.94271-5.71667-36.36438Z"
     transform="translate(-241.16498 -151.8354)"
     fill="#2f2e41"
     id="path62" />
  <path
     d="M732.55866,323.59056,708.25494,312.2001l-7.2761,12.66061s-19.54183,27.88664-19.8253,48.00475,3.18465,26.10071,3.18465,26.10071-8.42569,6.29921-4.21284,10.14961,13.53954,5.51181,6.37619,7.1811-5.348,18.56858,2.652,21.56858,50.96418,2.97375,50.96418,2.97375a7.6514,7.6514,0,0,1,1.88976-7.53446c3.33071-3.33858,6.33071-.94289,3.33071-6.14074s-8-2.19784-4-9.19784,3.99854-9.09184,3.99854-9.09184,9.7424-16.80119-4.12807-32.35467-.11917-1.06581-.11917-1.06581l-9.918-33.23571Z"
     transform="translate(-241.16498 -151.8354)"
     fill="#3f3d56"
     id="path64" />
  <path
     d="m 835.01975,421.86546 h -42.73242 c -9.45834,-0.0106 -13.1232,-3.67545 -13.13379,-13.13379 v -42.73242 c 0.0106,-9.45834 3.67545,-13.1232 13.13379,-13.13379 h 42.73242 c 9.45834,0.0106 13.1232,3.67545 13.13379,13.13379 v 42.73242 c -0.0106,9.45834 -3.67545,13.1232 -13.13379,13.13379 z"
     transform="translate(-241.16498,-151.8354)"
     fill="#49a909"
     id="path66"
     sodipodi:nodetypes="ccccccccc" />
  <path
     d="m 853.01975,289.86546 h -42.73242 c -9.45834,-0.0106 -13.1232,-3.67545 -13.13379,-13.13379 v -42.73242 c 0.0106,-9.45834 3.67545,-13.1232 13.13379,-13.13379 h 42.73242 c 9.45834,0.0106 13.1232,3.67545 13.13379,13.13379 v 42.73242 c -0.0106,9.45834 -3.67545,13.1232 -13.13379,13.13379 z"
     transform="translate(-241.16498,-151.8354)"
     fill="#49a909"
     id="path68"
     sodipodi:nodetypes="ccccccccc" />
  <path
     id="bbee2bee-8faa-4e0b-8a29-1ed5e19a1a55-1987"
     data-name="Path 9"
     d="M755.0294,310.342l.02109-.00245a4.257,4.257,0,0,0,3.726-4.72869l-2.783-23.59317a31.748,31.748,0,0,0-3.93877-12.01171,32.26006,32.26006,0,0,0-18.82943-14.93554,31.76656,31.76656,0,0,0-12.68757-1.09336c-17.42662,2.02785-22.90658,6.92046-27.88193,35.22542s2.78719,23.62912,2.78719,23.62912a4.264,4.264,0,0,0,.53017,1.61579,4.33378,4.33378,0,0,0,2.53531,2.00508,4.27817,4.27817,0,0,0,1.6964.14569c21.28869.81123,42.81762,1.85347,54.828-6.25659Z"
     transform="translate(-241.16498 -151.8354)"
     fill="#2f2e41" />
  <path
     id="af2c28ec-c1d2-4535-bf5a-7c25bf61990b-1988"
     data-name="Ellipse 1"
     d="M709.0951,279.34558A23.41773,23.41773,0,0,0,739.939,309.67385a23.145,23.145,0,0,0,12.51968-12.70766,23.41773,23.41773,0,0,0-30.82448-30.32168,23.14494,23.14494,0,0,0-12.539,12.70195Z"
     transform="translate(-241.16498 -151.8354)"
     fill="#ffb6b6" />
  <path
     id="ed097037-2d04-403a-be41-ce5d2710356f-1989"
     data-name="Path 10"
     d="M763.703,283.0551a25.11443,25.11443,0,0,0-3.11534-9.49979c-1.87319-7.62778-5.5887-14.10467-14.88974-11.80893a25.12581,25.12581,0,0,0-9.96972-.86858l-4.72493.53333q-.07961.00892-.15916.01836a25.07215,25.07215,0,0,0-21.94535,27.85007l.05574.47256,9.99438-1.138,2.28366-9.918,1.80589,9.45423,5.16233-.58581,1.15123-5.00365.9116,4.76655c8.92216,5.00515,20.38011,2.91548,33.49086-3.79843Z"
     transform="translate(-241.16498 -151.8354)"
     fill="#2f2e41" />
  <path
     id="b879d9dd-b2ba-47e8-86a3-e5c83aca3b22-1990"
     data-name="Path 13"
     d="M737.08594,311.70471a4.189,4.189,0,0,1,.094,2.3046,4.28426,4.28426,0,0,1-.434,1.11348,4.3338,4.3338,0,0,1-.60328.8241,4.24974,4.24974,0,0,1-2.62487,1.32034q-.09392.01019-.18825.01687t-.18917.009q-.09561.00329-.191.0012t-.192-.00758l-3.62156-.22618-6.11413-9.85722,1.12725,9.55651-16.46212-1.0006-4.78355-40.55378,27.03917-3.05787-.57655.85472a18.71581,18.71581,0,0,0-3.12952,9.6426,30.5085,30.5085,0,0,0,1.4103,10.28316,55.016,55.016,0,0,0,4.0647,9.7256,81.08449,81.08449,0,0,0,4.83882,7.98353A4.2783,4.2783,0,0,1,737.08594,311.70471Z"
     transform="translate(-241.16498 -151.8354)"
     fill="#2f2e41" />
  <path
     d="M800.73285,349.14347a7.74427,7.74427,0,0,0-4.43814,9.84769,7.42967,7.42967,0,0,0,.5307,1.10762L779.455,380.79187l7.39894,12.50846,20.73061-30.91962a7.72278,7.72278,0,0,0,2.85276-8.98643,7.39068,7.39068,0,0,0-9.51534-4.3247Q800.82689,349.10524,800.73285,349.14347Z"
     transform="translate(-241.16498 -151.8354)"
     fill="#ffb6b6"
     id="path74" />
  <path
     d="M709.75812,344.99253l0,0a13.37257,13.37257,0,0,0-5.75187,19.40309l16.64732,25.96983,39,35s32-23,33-31-2-10,1-8,6,1,5,0-.60769-1.063.19616-2.53149,3.80384-8.46851,3.80384-8.46851l-10.626-10.5s-11.374,5.5-12.374,8.5,3,2-1,3-9.34337-3.53543-5.17168,1.23229,3.82831,6.83858,0,6.80315-10.82832,9.96456-10.82832,9.96456l-37.00443-45.61167A13.37257,13.37257,0,0,0,709.75812,344.99253Z"
     transform="translate(-241.16498 -151.8354)"
     fill="#3f3d56"
     id="path76" />
  <path
     d="M241.165,746.9746a1.18647,1.18647,0,0,0,1.19006,1.19h715.29a1.19,1.19,0,0,0,0-2.38H242.355A1.18651,1.18651,0,0,0,241.165,746.9746Z"
     transform="translate(-241.16498 -151.8354)"
     fill="#ccc"
     id="path80" />
  <path
     d="M419.10563,180.90845h-27a5,5,0,0,1,0-10h27a5,5,0,0,1,0,10Z"
     transform="translate(-241.16498 -151.8354)"
     fill="#e6e6e6"
     id="path82" />
  <circle
     cx="354.94066"
     cy="24.07305"
     r="4.5"
     fill="#e6e6e6"
     id="circle84" />
  <circle
     cx="368.94066"
     cy="24.07305"
     r="4.5"
     fill="#e6e6e6"
     id="circle86" />
  <circle
     cx="382.94066"
     cy="24.07305"
     r="4.5"
     fill="#e6e6e6"
     id="circle88" />
  <circle
     cx="209.44066"
     cy="184.57305"
     r="12"
     fill="#ccc"
     id="circle90" />
  <circle
     cx="296.44066"
     cy="488.57305"
     r="12"
     fill="#ccc"
     id="circle92" />
  <path
     d="m 443.88574,500.36523 h -42.73242 c -10.01033,-0.0113 -14.12248,-4.12345 -14.13379,-14.13378 V 443.499 c 0.0113,-10.01033 4.12346,-14.12248 14.13379,-14.13379 h 42.73242 c 10.01033,0.0113 14.12249,4.12346 14.13379,14.13379 v 42.73243 c -0.0113,10.01034 -4.12345,14.1225 -14.13379,14.1338 z m -42.73242,-69 c -8.9062,0.0102 -12.12356,3.22757 -12.13379,12.13377 v 42.73243 c 0.01,8.90628 3.22751,12.12374 12.13379,12.13378 h 42.73242 c 8.90628,-0.01 12.12375,-3.2275 12.13379,-12.13378 V 443.499 c -0.0102,-8.90621 -3.22758,-12.12357 -12.13379,-12.13379 z"
     transform="translate(-241.16498,-151.8354)"
     fill="#e6e6e6"
     id="path94"
     sodipodi:nodetypes="cccccccccccccccccc" />
  <path
     d="m 529.38574,500.86523 h -42.73242 c -10.01033,-0.0113 -14.12248,-4.12345 -14.13379,-14.13378 V 443.999 c 0.0113,-10.01033 4.12346,-14.12248 14.13379,-14.13379 h 42.73242 c 10.01033,0.0113 14.12249,4.12346 14.13379,14.13379 v 42.73243 c -0.0113,10.01034 -4.12345,14.1225 -14.13379,14.1338 z m -42.73242,-69 c -8.9062,0.0102 -12.12356,3.22757 -12.13379,12.13377 v 42.73243 c 0.01,8.90628 3.22751,12.12374 12.13379,12.13378 h 42.73242 c 8.90628,-0.01 12.12375,-3.2275 12.13379,-12.13378 V 443.999 c -0.0102,-8.90621 -3.22758,-12.12357 -12.13379,-12.13379 z"
     transform="translate(-241.16498,-151.8354)"
     fill="#e6e6e6"
     id="path96"
     sodipodi:nodetypes="cccccccccccccccccc" />
  <path
     d="m 614.88574,501.36523 h -42.73242 c -10.01033,-0.0113 -14.12248,-4.12345 -14.13379,-14.13378 V 444.499 c 0.0113,-10.01033 4.12346,-14.12248 14.13379,-14.13379 h 42.73242 c 10.01033,0.0113 14.12249,4.12346 14.13379,14.13379 v 42.73243 c -0.0113,10.01034 -4.12345,14.1225 -14.13379,14.1338 z m -42.73242,-69 c -8.9062,0.0102 -12.12356,3.22757 -12.13379,12.13377 v 42.73243 c 0.01,8.90628 3.22751,12.12374 12.13379,12.13378 h 42.73242 c 8.90635,-0.01 12.12392,-3.22743 12.13379,-12.13378 V 444.499 c -0.01,-8.90629 -3.2275,-12.12375 -12.13379,-12.13379 z"
     transform="translate(-241.16498,-151.8354)"
     fill="#e6e6e6"
     id="path98"
     sodipodi:nodetypes="cccccccccccccccccc" />
  <circle
     cx="296.44066"
     cy="285.57305"
     r="12"
     fill="#ccc"
     id="circle100" />
  <path
     d="m 637.58108,385.45618 h -36.73247 c -9.45834,-0.0106 -13.1232,-3.67545 -13.13379,-13.13379 v -36.73242 c 0.0106,-9.45834 3.67545,-13.1232 13.13379,-13.13379 h 36.73247 c 9.45834,0.0106 13.1232,3.67545 13.13379,13.13379 v 36.73242 c -0.0106,9.45834 -3.67545,13.1232 -13.13379,13.13379 z"
     fill="#e6e6e6"
     id="path36-8"
     sodipodi:nodetypes="ccccccccc"
     style="fill:#f2f2f2;fill-opacity:1" />
  <path
     d="m 611.99168,578.72277 h -24.73247 c -9.45834,-0.0106 -13.1232,-3.67545 -13.13379,-13.13379 v -24.73242 c 0.0106,-9.45834 3.67545,-13.1232 13.13379,-13.13379 h 24.73247 c 9.45834,0.0106 13.1232,3.67545 13.13379,13.13379 v 24.73242 c -0.0106,9.45834 -3.67545,13.1232 -13.13379,13.13379 z"
     fill="#e6e6e6"
     id="path36-8-2-0"
     sodipodi:nodetypes="ccccccccc"
     style="fill:#f2f2f2;fill-opacity:1" />
  <path
     d="m 677.47252,53 h -24.73247 c -9.45834,-0.0106 -13.1232,-3.67545 -13.13379,-13.13379 V 15.13379 C 639.61686,5.6754498 643.28171,2.01059 652.74005,2 h 24.73247 c 9.45834,0.0106 13.1232,3.6754498 13.13379,13.13379 V 39.86621 C 690.59571,49.32455 686.93086,52.98941 677.47252,53 Z"
     fill="#e6e6e6"
     id="path36-8-2-0-1"
     sodipodi:nodetypes="ccccccccc"
     style="fill:#f2f2f2;fill-opacity:1" />
  <path
     d="m 654.40746,490.16399 h -36.73247 c -9.45834,-0.0106 -13.1232,-3.67545 -13.13379,-13.13379 v -36.73242 c 0.0106,-9.45834 3.67545,-13.1232 13.13379,-13.13379 h 36.73247 c 9.45834,0.0106 13.1232,3.67545 13.13379,13.13379 v 36.73242 c -0.0106,9.45834 -3.67545,13.1232 -13.13379,13.13379 z"
     fill="#e6e6e6"
     id="path36-8-3"
     sodipodi:nodetypes="ccccccccc"
     style="fill:#f2f2f2;fill-opacity:1" />
</svg>
